<svg width="512" height="512" viewBox="0 0 512 512" fill="none" xmlns="http://www.w3.org/2000/svg">
<rect width="512" height="512" rx="256" fill="white"/>
<path fill-rule="evenodd" clip-rule="evenodd" d="M416.977 416.067C375.955 457.089 319.283 482.462 256.686 482.462C131.491 482.462 30 380.971 30 255.776C30 130.581 131.491 29.0902 256.686 29.0902C318.902 29.0902 375.264 54.1544 416.225 94.7364L368.029 142.932C338.902 113.412 298.428 95.115 253.681 95.115C164.967 95.115 93.0493 167.032 93.0493 255.747C93.0493 344.461 164.967 416.378 253.681 416.378C298.795 416.378 339.565 397.78 368.743 367.833L416.977 416.067Z" fill="#282F49"/>
<path fill-rule="evenodd" clip-rule="evenodd" d="M330.538 332.632C311.382 351.045 285.356 362.363 256.687 362.363C197.821 362.363 150.1 314.642 150.1 255.776C150.1 196.909 197.821 149.188 256.687 149.188C285.738 149.188 312.075 160.811 331.301 179.659L283.523 227.436C276.41 219.927 266.343 215.243 255.183 215.243C233.626 215.243 216.151 232.718 216.151 254.275C216.151 275.832 233.626 293.307 255.183 293.307C265.198 293.307 274.331 289.535 281.241 283.335L330.538 332.632Z" fill="#282F49"/>
</svg>
