<svg width="806" height="231" viewBox="0 0 806 231" fill="none" xmlns="http://www.w3.org/2000/svg">
<path d="M697.069 62.0536V42.5841H773.556V62.0536H746.09V128.458H722.45V62.0536H697.069Z" fill="white"/>
<path d="M544.443 42.5842L506.895 127.763L506.548 128.458H529.841L555.917 65.8779L581.645 128.458H604.938L567.738 42.5842H544.443Z" fill="white"/>
<path d="M615.018 42.584V62.0534H657.086C674.47 66.5731 669.601 87.7807 657.086 87.7807H614.322V128.458H636.574V105.512H651.871L666.126 128.458H693.592L674.47 101.688C708.541 79.0891 683.856 41.541 659.867 42.584H615.018Z" fill="white"/>
<path d="M338.623 42.5841V62.0536H356.355L373.737 42.5841H338.623Z" fill="white"/>
<path d="M397.379 42.5841L338.623 111.422V128.806H352.529L413.024 57.8815V42.5841H397.379Z" fill="white"/>
<path d="M415.11 128.806V109.336H395.8L376.867 128.806H415.11Z" fill="white"/>
<path fill-rule="evenodd" clip-rule="evenodd" d="M506.071 114.075C497.339 124.332 483.976 130.892 468.999 130.892C442.693 130.892 421.368 110.656 421.368 85.6948C421.368 60.7334 442.693 40.498 468.999 40.498C484.068 40.498 497.502 47.1381 506.23 57.5028L492.211 71.5211C487.607 64.5594 479.709 59.9675 470.737 59.9675C456.528 59.9675 445.01 71.486 445.01 85.6948C445.01 99.9038 456.528 111.422 470.737 111.422C479.619 111.422 487.448 106.922 492.072 100.077L506.071 114.075Z" fill="white"/>
<path fill-rule="evenodd" clip-rule="evenodd" d="M179.227 131.619C205.726 131.619 227.205 111.228 227.205 86.0747C227.205 60.9212 205.726 40.5303 179.227 40.5303C152.73 40.5303 131.249 60.9212 131.249 86.0747C131.249 111.228 152.73 131.619 179.227 131.619ZM179.045 110.727C191.909 110.727 202.338 99.3636 202.338 85.3468C202.338 71.3299 191.909 59.967 179.045 59.967C166.18 59.967 155.751 71.3299 155.751 85.3468C155.751 99.3636 166.18 110.727 179.045 110.727Z" fill="white"/>
<path d="M238.843 42.5841V62.0536H286.821C314.634 70.0498 307.333 109.336 286.821 109.336H264.222V85.3473H238.843V128.806H292.384C322.978 124.634 329.932 98.0951 329.583 85.3473C328.541 54.7525 304.899 42.5841 292.384 42.5841H238.843Z" fill="white"/>
<path fill-rule="evenodd" clip-rule="evenodd" d="M130.611 141.61C116.765 155.456 97.6376 164.02 76.5099 164.02C34.2547 164.02 0 129.765 0 87.5099C0 45.2547 34.2547 11 76.5099 11C97.5087 11 116.532 19.4596 130.357 33.1567L114.09 49.4233C104.259 39.4599 90.5989 33.2844 75.496 33.2844C45.5536 33.2844 21.2804 57.5575 21.2804 87.5001C21.2804 117.442 45.5536 141.716 75.496 141.716C90.7226 141.716 104.483 135.439 114.331 125.331L130.611 141.61Z" fill="#3B7AD9"/>
<path fill-rule="evenodd" clip-rule="evenodd" d="M101.436 113.45C94.9708 119.664 86.1867 123.484 76.5105 123.484C56.6421 123.484 40.5356 107.378 40.5356 87.5094C40.5356 67.6411 56.6421 51.5346 76.5105 51.5346C86.3157 51.5346 95.2046 55.4574 101.694 61.8191L85.5684 77.9444C83.1674 75.4099 79.7699 73.829 76.003 73.829C68.7273 73.829 62.8292 79.7271 62.8292 87.0029C62.8292 94.2786 68.7273 100.177 76.003 100.177C79.3832 100.177 82.4659 98.9038 84.798 96.8111L101.436 113.45Z" fill="#3B7AD9"/>
<path d="M231.05 182.079V217.477H224.637V182.079H231.05ZM263.443 201.921V217.477H257.187V190.928H263.166V195.439H263.477C264.089 193.953 265.062 192.772 266.4 191.896C267.747 191.021 269.412 190.583 271.394 190.583C273.227 190.583 274.822 190.975 276.182 191.758C277.554 192.542 278.613 193.677 279.362 195.164C280.122 196.65 280.498 198.453 280.485 200.572V217.477H274.229V201.542C274.229 199.766 273.767 198.378 272.846 197.376C271.936 196.373 270.675 195.872 269.061 195.872C267.967 195.872 266.992 196.113 266.141 196.598C265.298 197.07 264.636 197.755 264.152 198.655C263.679 199.553 263.443 200.642 263.443 201.921ZM319.763 190.928V195.768H304.07V190.928H319.763ZM307.992 217.477V188.422C307.992 186.636 308.361 185.15 309.1 183.963C309.847 182.776 310.851 181.889 312.106 181.301C313.362 180.713 314.757 180.419 316.29 180.419C317.372 180.419 318.334 180.506 319.177 180.679C320.017 180.851 320.64 181.007 321.042 181.145L319.797 185.985C319.533 185.904 319.198 185.824 318.796 185.743C318.391 185.651 317.942 185.605 317.447 185.605C316.284 185.605 315.46 185.887 314.975 186.452C314.503 187.005 314.267 187.8 314.267 188.837V217.477H307.992ZM354.716 217.995C352.123 217.995 349.876 217.427 347.975 216.285C346.074 215.144 344.598 213.549 343.55 211.497C342.513 209.446 341.994 207.049 341.994 204.307C341.994 201.563 342.513 199.161 343.55 197.099C344.598 195.037 346.074 193.434 347.975 192.295C349.876 191.154 352.123 190.583 354.716 190.583C357.308 190.583 359.555 191.154 361.456 192.295C363.357 193.434 364.828 195.037 365.865 197.099C366.913 199.161 367.437 201.563 367.437 204.307C367.437 207.049 366.913 209.446 365.865 211.497C364.828 213.549 363.357 215.144 361.456 216.285C359.555 217.427 357.308 217.995 354.716 217.995ZM354.75 212.984C356.156 212.984 357.331 212.597 358.276 211.825C359.222 211.041 359.923 209.993 360.385 208.68C360.857 207.366 361.093 205.903 361.093 204.289C361.093 202.665 360.857 201.195 360.385 199.882C359.923 198.557 359.222 197.503 358.276 196.718C357.331 195.935 356.156 195.543 354.75 195.543C353.311 195.543 352.112 195.935 351.155 196.718C350.211 197.503 349.501 198.557 349.029 199.882C348.567 201.195 348.338 202.665 348.338 204.289C348.338 205.903 348.567 207.366 349.029 208.68C349.501 209.993 350.211 211.041 351.155 211.825C352.112 212.597 353.311 212.984 354.75 212.984ZM405.474 190.928V195.768H390.212V190.928H405.474ZM393.98 184.568H400.237V209.492C400.237 210.333 400.364 210.979 400.618 211.428C400.882 211.866 401.228 212.166 401.655 212.327C402.081 212.488 402.553 212.569 403.072 212.569C403.463 212.569 403.821 212.54 404.143 212.483C404.478 212.424 404.732 212.372 404.903 212.327L405.959 217.219C405.624 217.334 405.147 217.461 404.524 217.598C403.912 217.736 403.165 217.818 402.278 217.84C400.709 217.886 399.298 217.65 398.042 217.131C396.787 216.602 395.789 215.783 395.052 214.677C394.325 213.572 393.969 212.188 393.98 210.53V184.568ZM441.645 217.995C438.984 217.995 436.685 217.443 434.748 216.337C432.824 215.219 431.343 213.64 430.307 211.601C429.27 209.549 428.751 207.135 428.751 204.359C428.751 201.628 429.27 199.231 430.307 197.169C431.355 195.094 432.818 193.481 434.696 192.329C436.574 191.164 438.782 190.583 441.316 190.583C442.953 190.583 444.498 190.848 445.949 191.377C447.412 191.896 448.703 192.702 449.821 193.797C450.949 194.892 451.837 196.287 452.482 197.981C453.128 199.662 453.45 201.667 453.45 203.996V205.913H431.69V201.697H447.453C447.442 200.499 447.183 199.433 446.675 198.499C446.169 197.555 445.458 196.811 444.55 196.269C443.65 195.727 442.602 195.457 441.404 195.457C440.125 195.457 439 195.768 438.032 196.391C437.064 197.001 436.31 197.807 435.768 198.811C435.238 199.802 434.968 200.891 434.956 202.077V205.759C434.956 207.303 435.238 208.628 435.803 209.734C436.367 210.828 437.157 211.669 438.172 212.257C439.186 212.833 440.372 213.121 441.731 213.121C442.641 213.121 443.466 212.994 444.203 212.742C444.942 212.476 445.58 212.091 446.122 211.583C446.664 211.077 447.072 210.449 447.349 209.7L453.191 210.356C452.822 211.9 452.119 213.248 451.082 214.4C450.057 215.541 448.744 216.429 447.142 217.063C445.541 217.684 443.707 217.995 441.645 217.995ZM489.795 217.995C487.144 217.995 484.867 217.414 482.966 216.25C481.077 215.087 479.619 213.479 478.594 211.428C477.58 209.365 477.072 206.992 477.072 204.307C477.072 201.61 477.591 199.231 478.628 197.169C479.666 195.094 481.129 193.481 483.018 192.329C484.919 191.164 487.167 190.583 489.759 190.583C491.914 190.583 493.821 190.98 495.481 191.776C497.151 192.559 498.482 193.67 499.473 195.112C500.464 196.541 501.029 198.211 501.167 200.123H495.187C494.944 198.845 494.368 197.779 493.458 196.925C492.56 196.062 491.356 195.63 489.847 195.63C488.566 195.63 487.443 195.976 486.475 196.666C485.507 197.348 484.753 198.326 484.211 199.605C483.681 200.884 483.416 202.416 483.416 204.203C483.416 206.012 483.681 207.568 484.211 208.87C484.742 210.161 485.484 211.157 486.441 211.86C487.409 212.551 488.544 212.898 489.847 212.898C490.768 212.898 491.592 212.724 492.318 212.379C493.055 212.021 493.671 211.508 494.168 210.841C494.663 210.172 495.003 209.36 495.187 208.403H501.167C501.018 210.281 500.464 211.946 499.509 213.399C498.552 214.838 497.25 215.969 495.602 216.786C493.953 217.593 492.018 217.995 489.795 217.995ZM532.031 201.921V217.477H525.775V182.079H531.893V195.439H532.205C532.827 193.942 533.789 192.76 535.091 191.896C536.404 191.021 538.075 190.583 540.103 190.583C541.947 190.583 543.555 190.969 544.925 191.74C546.297 192.513 547.358 193.642 548.105 195.128C548.867 196.614 549.247 198.43 549.247 200.572V217.477H542.99V201.542C542.99 199.755 542.529 198.367 541.607 197.376C540.697 196.373 539.418 195.872 537.771 195.872C536.664 195.872 535.673 196.113 534.796 196.598C533.932 197.07 533.253 197.755 532.757 198.655C532.274 199.553 532.031 200.642 532.031 201.921Z" fill="white"/>
<path d="M768.241 8.17969V5.81818H782.312V8.17969H776.639V24H773.905V8.17969H768.241ZM785.421 5.81818H788.751L794.539 19.9517H794.752L800.54 5.81818H803.869V24H801.259V10.843H801.091L795.729 23.9734H793.562L788.2 10.8342H788.031V24H785.421V5.81818Z" fill="white"/>
</svg>
